dummy_motion.mot
version=1
nRows=21
nColumns=11
inDegrees=No
endheader
                time	         pelvis_tilt	           pelvis_tx	           pelvis_ty	       hip_flexion_l	       hip_flexion_r	        knee_angle_l	        knee_angle_r	       ankle_angle_l	       ankle_angle_r	    lumbar_extension	
          0.00000000	          0.00000000	          0.00000000	          0.00000000	         -0.17922538	         -0.55994860	         -1.12045861	         -0.11094806	         -0.41473738	          0.27601925	          0.42840968	
          0.00200040	          0.00000000	          0.00000000	          0.00000000	         -0.55168126	         -0.37318435	         -0.90689502	         -0.99280433	          0.31864801	          0.36075779	         -0.43773720	
          0.00400080	          0.00000000	          0.00000000	          0.00000000	         -0.38346082	         -0.53935057	         -0.05034145	         -0.35303976	          0.05795041	         -0.20253863	         -0.05121813	
          0.00600120	          0.00000000	          0.00000000	          0.00000000	          0.84214408	          0.45894344	         -1.16464276	         -0.08380279	          0.11761595	          0.03220104	          0.51213928	
          0.00800160	          0.00000000	          0.00000000	          0.00000000	          0.55072384	          0.12076926	         -1.02058415	         -0.10315540	          0.42301979	          0.23703094	          0.07340007	
          0.01000200	          0.00000000	          0.00000000	          0.00000000	          0.49030489	          0.22270963	         -0.70015488	         -1.42430575	         -0.29332163	         -0.04860292	         -0.04935207	
          0.01200240	          0.00000000	          0.00000000	          0.00000000	         -0.00603023	          0.58531171	         -0.68202350	         -0.12499056	          0.42579155	         -0.32579786	          0.17166654	
          0.01400280	          0.00000000	          0.00000000	          0.00000000	         -0.35351789	         -0.07350080	         -1.04625902	         -1.22642294	          0.50099021	         -0.42701181	         -0.17728294	
          0.01600320	          0.00000000	          0.00000000	          0.00000000	         -0.70163466	          0.29635265	         -0.17218954	         -1.29058802	          0.12511674	          0.46136124	          0.28994894	
          0.01800360	          0.00000000	          0.00000000	          0.00000000	          0.24040977	          0.11666296	         -1.01896482	         -0.38514078	          0.20564316	         -0.25998845	          0.43327555	
          0.02000400	          0.00000000	          0.00000000	          0.00000000	         -0.20850104	          0.87252177	         -0.85568502	         -0.82881386	         -0.48201228	         -0.27586311	          0.25123448	
          0.02200440	          0.00000000	          0.00000000	          0.00000000	          0.15799104	          0.26706664	         -1.46555355	         -1.01710561	          0.35327924	          0.02619964	          0.44461358	
          0.02400480	          0.00000000	          0.00000000	          0.00000000	          0.38087718	         -0.41587986	         -0.59774812	         -1.50390032	          0.23768054	         -0.27442015	         -0.23699332	
          0.02600520	          0.00000000	          0.00000000	          0.00000000	          0.29739612	         -0.16252317	         -0.62519665	         -1.23861052	          0.41328674	          0.00137885	          0.17562387	
          0.02800560	          0.00000000	          0.00000000	          0.00000000	         -0.34928432	         -0.47947800	         -0.14121348	         -1.28799517	         -0.28161010	         -0.23720346	          0.05717342	
          0.03000600	          0.00000000	          0.00000000	          0.00000000	          0.27535086	          0.02976606	         -0.17031621	         -0.24675490	          0.45289575	          0.39446613	         -0.43492948	
          0.03200640	          0.00000000	          0.00000000	          0.00000000	         -0.31375329	          0.17448238	         -0.49347701	         -1.01070802	         -0.48045256	         -0.17281245	          0.16544450	
          0.03400680	          0.00000000	          0.00000000	          0.00000000	         -0.46345392	         -0.55361914	         -1.18251543	         -1.49066969	          0.33969699	          0.31507513	          0.03847272	
          0.03600720	          0.00000000	          0.00000000	          0.00000000	          0.22941531	          0.35162261	         -1.45542593	         -0.45151627	         -0.22016384	          0.05561178	         -0.31724973	
          0.03800760	          0.00000000	          0.00000000	          0.00000000	         -0.07434434	         -0.32313894	         -0.71448317	         -1.28512797	          0.33391681	          0.08833322	         -0.13005074	
          0.04000800	          0.00000000	          0.00000000	          0.00000000	          0.53236495	         -0.17334777	         -1.39184132	         -1.08143492	          0.01483287	         -0.31111731	         -0.23216172	
